<svg xmlns="http://www.w3.org/2000/svg" xmlns:xlink="http://www.w3.org/1999/xlink" width="300" zoomAndPan="magnify" viewBox="0 0 224.87999 74.999997" height="100" preserveAspectRatio="xMidYMid meet" version="1.2"><defs/><g id="26c3abfcc6"><g style="fill:#c1ff72;fill-opacity:1;"><g transform="translate(78.924965, 54.72611)"><path style="stroke:none" d="M 29.984375 -17.484375 C 29.984375 -19.296875 29.503906 -20.976562 28.546875 -22.53125 C 27.597656 -24.082031 26.34375 -25.335938 24.78125 -26.296875 C 23.226562 -27.253906 21.546875 -27.734375 19.734375 -27.734375 C 17.960938 -27.734375 16.289062 -27.253906 14.71875 -26.296875 C 13.144531 -25.335938 11.878906 -24.082031 10.921875 -22.53125 C 9.960938 -20.976562 9.484375 -19.296875 9.484375 -17.484375 C 9.484375 -15.703125 9.960938 -14.023438 10.921875 -12.453125 C 11.878906 -10.878906 13.144531 -9.601562 14.71875 -8.625 C 16.289062 -7.65625 17.960938 -7.171875 19.734375 -7.171875 C 21.546875 -7.171875 23.226562 -7.65625 24.78125 -8.625 C 26.34375 -9.601562 27.597656 -10.878906 28.546875 -12.453125 C 29.503906 -14.023438 29.984375 -15.703125 29.984375 -17.484375 Z M 37.6875 -17.4375 C 37.6875 -15.039062 37.207031 -12.753906 36.25 -10.578125 C 35.289062 -8.410156 33.984375 -6.5 32.328125 -4.84375 C 30.671875 -3.1875 28.765625 -1.878906 26.609375 -0.921875 C 24.453125 0.0351562 22.160156 0.515625 19.734375 0.515625 C 17.347656 0.515625 15.066406 0.0351562 12.890625 -0.921875 C 10.722656 -1.878906 8.8125 -3.1875 7.15625 -4.84375 C 5.5 -6.5 4.191406 -8.410156 3.234375 -10.578125 C 2.273438 -12.753906 1.796875 -15.039062 1.796875 -17.4375 C 1.796875 -19.851562 2.273438 -22.140625 3.234375 -24.296875 C 4.191406 -26.453125 5.5 -28.359375 7.15625 -30.015625 C 8.8125 -31.671875 10.722656 -32.976562 12.890625 -33.9375 C 15.066406 -34.894531 17.347656 -35.375 19.734375 -35.375 C 22.160156 -35.375 24.453125 -34.894531 26.609375 -33.9375 C 28.765625 -32.976562 30.671875 -31.671875 32.328125 -30.015625 C 33.984375 -28.359375 35.289062 -26.453125 36.25 -24.296875 C 37.207031 -22.140625 37.6875 -19.851562 37.6875 -17.4375 Z M 37.6875 -17.4375 "/></g></g><g style="fill:#050434;fill-opacity:1;"><g transform="translate(131.572652, 54.72611)"><path style="stroke:none" d="M 2.671875 -3.953125 C 2.671875 -5.210938 3.101562 -6.273438 3.96875 -7.140625 C 4.84375 -8.015625 5.910156 -8.453125 7.171875 -8.453125 C 8.398438 -8.453125 9.457031 -8.015625 10.34375 -7.140625 C 11.238281 -6.273438 11.6875 -5.210938 11.6875 -3.953125 C 11.6875 -2.722656 11.238281 -1.671875 10.34375 -0.796875 C 9.457031 0.078125 8.398438 0.515625 7.171875 0.515625 C 5.910156 0.515625 4.84375 0.078125 3.96875 -0.796875 C 3.101562 -1.671875 2.671875 -2.722656 2.671875 -3.953125 Z M 2.671875 -3.953125 "/></g></g></g></svg>