<svg xmlns="http://www.w3.org/2000/svg" xmlns:xlink="http://www.w3.org/1999/xlink" width="300" zoomAndPan="magnify" viewBox="0 0 224.87999 74.999997" height="100" preserveAspectRatio="xMidYMid meet" version="1.2"><defs/><g id="e86ed6b9ec"><g style="fill:#1f2a2e;fill-opacity:1;"><g transform="translate(40.744723, 45.513241)"><path style="stroke:none" d="M 34.4375 0 L 24.65625 0 L 24.65625 -9.40625 L 12.375 -9.40625 L 12.375 0 L 2.59375 0 L 2.59375 -23.3125 L 12.375 -23.3125 L 12.375 -13.890625 L 24.65625 -13.890625 L 24.65625 -23.3125 L 34.4375 -23.3125 Z M 34.4375 0 "/></g></g><g style="fill:#1f2a2e;fill-opacity:1;"><g transform="translate(77.77149, 45.513241)"><path style="stroke:none" d="M 17.625 0.5 C 11.863281 0.5 7.625 -0.679688 4.90625 -3.046875 C 2.5 -5.148438 1.296875 -8.015625 1.296875 -11.640625 C 1.296875 -15.265625 2.5 -18.125 4.90625 -20.21875 C 7.625 -22.59375 11.863281 -23.78125 17.625 -23.78125 C 23.382812 -23.78125 27.625 -22.59375 30.34375 -20.21875 C 32.75 -18.125 33.953125 -15.265625 33.953125 -11.640625 C 33.953125 -8.015625 32.75 -5.148438 30.34375 -3.046875 C 27.625 -0.679688 23.382812 0.5 17.625 0.5 Z M 17.625 -5.75 C 19.988281 -5.75 21.722656 -6.425781 22.828125 -7.78125 C 23.710938 -8.875 24.15625 -10.160156 24.15625 -11.640625 C 24.15625 -13.128906 23.710938 -14.414062 22.828125 -15.5 C 21.722656 -16.863281 19.988281 -17.546875 17.625 -17.546875 C 15.257812 -17.546875 13.519531 -16.863281 12.40625 -15.5 C 11.519531 -14.414062 11.078125 -13.128906 11.078125 -11.640625 C 11.078125 -10.160156 11.519531 -8.875 12.40625 -7.78125 C 13.519531 -6.425781 15.257812 -5.75 17.625 -5.75 Z M 17.625 -5.75 "/></g></g><g style="fill:#1f2a2e;fill-opacity:1;"><g transform="translate(113.011877, 45.513241)"><path style="stroke:none" d="M 19.875 0 L 10.109375 0 L 10.109375 -17.546875 L 0.96875 -17.546875 L 0.96875 -23.3125 L 29.015625 -23.3125 L 29.015625 -17.546875 L 19.875 -17.546875 Z M 19.875 0 "/></g></g><g style="fill:#1f2a2e;fill-opacity:1;"><g transform="translate(142.990567, 45.513241)"><path style="stroke:none" d="M 22.734375 0 L 12.96875 0 L 12.96875 -11.046875 L 0.25 -23.3125 L 11.078125 -23.3125 L 17.84375 -16.34375 L 24.609375 -23.3125 L 35.4375 -23.3125 L 22.734375 -11.046875 Z M 22.734375 0 "/></g></g><g style="fill:#1f2a2e;fill-opacity:1;"><g transform="translate(178.669429, 45.513241)"><path style="stroke:none" d="M 4.96875 0 L 0.484375 0 L 0.484375 -4.484375 L 4.96875 -4.484375 Z M 4.96875 0 "/></g></g><g style="fill:#1f2a2e;fill-opacity:1;"><g transform="translate(80.782751, 60.95571)"><path style="stroke:none" d="M 4.28125 -1.40625 C 4.488281 -1.40625 4.71875 -1.4375 4.96875 -1.5 C 5.21875 -1.5625 5.429688 -1.671875 5.609375 -1.828125 C 5.785156 -1.984375 5.875 -2.191406 5.875 -2.453125 C 5.875 -2.703125 5.78125 -2.898438 5.59375 -3.046875 C 5.40625 -3.203125 5.15625 -3.328125 4.84375 -3.421875 C 4.539062 -3.515625 4.207031 -3.601562 3.84375 -3.6875 C 3.476562 -3.769531 3.109375 -3.867188 2.734375 -3.984375 C 2.367188 -4.109375 2.03125 -4.269531 1.71875 -4.46875 C 1.40625 -4.664062 1.15625 -4.914062 0.96875 -5.21875 C 0.78125 -5.53125 0.6875 -5.921875 0.6875 -6.390625 C 0.6875 -6.859375 0.78125 -7.257812 0.96875 -7.59375 C 1.164062 -7.9375 1.425781 -8.222656 1.75 -8.453125 C 2.070312 -8.679688 2.429688 -8.847656 2.828125 -8.953125 C 3.234375 -9.066406 3.640625 -9.125 4.046875 -9.125 C 4.660156 -9.125 5.234375 -9.023438 5.765625 -8.828125 C 6.304688 -8.640625 6.742188 -8.332031 7.078125 -7.90625 C 7.421875 -7.488281 7.601562 -6.9375 7.625 -6.25 L 5.703125 -6.25 C 5.648438 -6.71875 5.488281 -7.039062 5.21875 -7.21875 C 4.945312 -7.40625 4.566406 -7.5 4.078125 -7.5 C 3.890625 -7.5 3.691406 -7.46875 3.484375 -7.40625 C 3.273438 -7.34375 3.097656 -7.242188 2.953125 -7.109375 C 2.804688 -6.972656 2.734375 -6.789062 2.734375 -6.5625 C 2.734375 -6.332031 2.828125 -6.148438 3.015625 -6.015625 C 3.203125 -5.878906 3.453125 -5.765625 3.765625 -5.671875 C 4.078125 -5.585938 4.414062 -5.503906 4.78125 -5.421875 C 5.15625 -5.347656 5.523438 -5.253906 5.890625 -5.140625 C 6.253906 -5.023438 6.585938 -4.867188 6.890625 -4.671875 C 7.203125 -4.472656 7.453125 -4.210938 7.640625 -3.890625 C 7.835938 -3.578125 7.9375 -3.175781 7.9375 -2.6875 C 7.9375 -2.15625 7.828125 -1.703125 7.609375 -1.328125 C 7.398438 -0.960938 7.113281 -0.664062 6.75 -0.4375 C 6.394531 -0.21875 5.992188 -0.0546875 5.546875 0.046875 C 5.109375 0.160156 4.660156 0.21875 4.203125 0.21875 C 3.546875 0.21875 2.925781 0.101562 2.34375 -0.125 C 1.769531 -0.351562 1.300781 -0.695312 0.9375 -1.15625 C 0.582031 -1.625 0.398438 -2.226562 0.390625 -2.96875 L 2.40625 -2.96875 C 2.4375 -2.425781 2.632812 -2.03125 3 -1.78125 C 3.375 -1.53125 3.800781 -1.40625 4.28125 -1.40625 Z M 4.28125 -1.40625 "/></g></g><g style="fill:#1f2a2e;fill-opacity:1;"><g transform="translate(92.502798, 60.95571)"><path style="stroke:none" d="M 4.609375 -7.1875 L 4.609375 0 L 2.625 0 L 2.625 -7.1875 L 0.0625 -7.1875 L 0.0625 -8.984375 L 7.171875 -8.984375 L 7.171875 -7.1875 Z M 4.609375 -7.1875 "/></g></g><g style="fill:#1f2a2e;fill-opacity:1;"><g transform="translate(103.139381, 60.95571)"><path style="stroke:none" d="M 6.046875 -8.984375 L 8.03125 -8.984375 L 8.03125 -3.5 C 8.03125 -2.300781 7.703125 -1.394531 7.046875 -0.78125 C 6.390625 -0.175781 5.476562 0.125 4.3125 0.125 C 3.132812 0.125 2.21875 -0.175781 1.5625 -0.78125 C 0.914062 -1.394531 0.59375 -2.300781 0.59375 -3.5 L 0.59375 -8.984375 L 2.578125 -8.984375 L 2.578125 -3.796875 C 2.578125 -3.179688 2.695312 -2.703125 2.9375 -2.359375 C 3.175781 -2.015625 3.632812 -1.84375 4.3125 -1.84375 C 4.988281 -1.84375 5.445312 -2.015625 5.6875 -2.359375 C 5.925781 -2.703125 6.046875 -3.179688 6.046875 -3.796875 Z M 6.046875 -8.984375 "/></g></g><g style="fill:#1f2a2e;fill-opacity:1;"><g transform="translate(115.150115, 60.95571)"><path style="stroke:none" d="M 2.75 -1.828125 L 3.34375 -1.828125 C 3.851562 -1.828125 4.300781 -1.941406 4.6875 -2.171875 C 5.070312 -2.410156 5.367188 -2.734375 5.578125 -3.140625 C 5.796875 -3.546875 5.90625 -4 5.90625 -4.5 C 5.90625 -5 5.796875 -5.445312 5.578125 -5.84375 C 5.367188 -6.25 5.070312 -6.566406 4.6875 -6.796875 C 4.300781 -7.035156 3.851562 -7.15625 3.34375 -7.15625 L 2.75 -7.15625 Z M 0.796875 -8.984375 L 3.46875 -8.984375 C 4.101562 -8.984375 4.691406 -8.867188 5.234375 -8.640625 C 5.773438 -8.410156 6.242188 -8.09375 6.640625 -7.6875 C 7.046875 -7.28125 7.363281 -6.804688 7.59375 -6.265625 C 7.820312 -5.722656 7.9375 -5.132812 7.9375 -4.5 C 7.9375 -3.863281 7.820312 -3.269531 7.59375 -2.71875 C 7.363281 -2.175781 7.046875 -1.703125 6.640625 -1.296875 C 6.242188 -0.890625 5.773438 -0.570312 5.234375 -0.34375 C 4.691406 -0.113281 4.101562 0 3.46875 0 L 0.796875 0 Z M 0.796875 -8.984375 "/></g></g><g style="fill:#1f2a2e;fill-opacity:1;"><g transform="translate(126.936234, 60.95571)"><path style="stroke:none" d="M 2.78125 0 L 0.796875 0 L 0.796875 -8.984375 L 2.78125 -8.984375 Z M 2.78125 0 "/></g></g><g style="fill:#1f2a2e;fill-opacity:1;"><g transform="translate(133.899597, 60.95571)"><path style="stroke:none" d="M 7.734375 -4.5 C 7.734375 -4.96875 7.609375 -5.398438 7.359375 -5.796875 C 7.117188 -6.203125 6.796875 -6.53125 6.390625 -6.78125 C 5.992188 -7.03125 5.5625 -7.15625 5.09375 -7.15625 C 4.632812 -7.15625 4.203125 -7.03125 3.796875 -6.78125 C 3.390625 -6.53125 3.0625 -6.203125 2.8125 -5.796875 C 2.570312 -5.398438 2.453125 -4.96875 2.453125 -4.5 C 2.453125 -4.039062 2.570312 -3.609375 2.8125 -3.203125 C 3.0625 -2.804688 3.390625 -2.476562 3.796875 -2.21875 C 4.203125 -1.96875 4.632812 -1.84375 5.09375 -1.84375 C 5.5625 -1.84375 5.992188 -1.96875 6.390625 -2.21875 C 6.796875 -2.476562 7.117188 -2.804688 7.359375 -3.203125 C 7.609375 -3.609375 7.734375 -4.039062 7.734375 -4.5 Z M 9.71875 -4.5 C 9.71875 -3.875 9.59375 -3.28125 9.34375 -2.71875 C 9.09375 -2.164062 8.753906 -1.675781 8.328125 -1.25 C 7.898438 -0.820312 7.410156 -0.484375 6.859375 -0.234375 C 6.304688 0.00390625 5.71875 0.125 5.09375 0.125 C 4.46875 0.125 3.875 0.00390625 3.3125 -0.234375 C 2.757812 -0.484375 2.269531 -0.820312 1.84375 -1.25 C 1.414062 -1.675781 1.078125 -2.164062 0.828125 -2.71875 C 0.585938 -3.28125 0.46875 -3.875 0.46875 -4.5 C 0.46875 -5.125 0.585938 -5.710938 0.828125 -6.265625 C 1.078125 -6.816406 1.414062 -7.304688 1.84375 -7.734375 C 2.269531 -8.160156 2.757812 -8.5 3.3125 -8.75 C 3.875 -9 4.46875 -9.125 5.09375 -9.125 C 5.71875 -9.125 6.304688 -9 6.859375 -8.75 C 7.410156 -8.5 7.898438 -8.160156 8.328125 -7.734375 C 8.753906 -7.304688 9.09375 -6.816406 9.34375 -6.265625 C 9.59375 -5.710938 9.71875 -5.125 9.71875 -4.5 Z M 9.71875 -4.5 "/></g></g><path style="fill:none;stroke-width:1;stroke-linecap:butt;stroke-linejoin:miter;stroke:#050434;stroke-opacity:1;stroke-miterlimit:4;" d="M 0.00237893 0.499798 L 48.215531 0.499798 " transform="matrix(0.746441,0,0,0.746441,43.009943,48.138649)"/><path style="fill:none;stroke-width:1;stroke-linecap:butt;stroke-linejoin:miter;stroke:#050434;stroke-opacity:1;stroke-miterlimit:4;" d="M -0.00182516 0.501095 L 48.21656 0.501095 " transform="matrix(0.746441,0,0,0.746441,149.49355,17.633775)"/></g></svg>